<?xml version="1.0" encoding="utf-8"?>
<!-- Generator: Adobe Illustrator 16.0.0, SVG Export Plug-In . SVG Version: 6.00 Build 0)  -->
<!DOCTYPE svg PUBLIC "-//W3C//DTD SVG 1.1//EN" "http://www.w3.org/Graphics/SVG/1.1/DTD/svg11.dtd">
<svg version="1.1" id="b2448b99-d97f-419e-8dc3-d5510f0392fe"
	 xmlns="http://www.w3.org/2000/svg" xmlns:xlink="http://www.w3.org/1999/xlink" x="0px" y="0px" width="709.533px"
	 height="558.594px" viewBox="0 0 709.533 558.594" enable-background="new 0 0 709.533 558.594" xml:space="preserve">
<g>
	<rect x="0.275" y="0.365" fill="#E6E6E6" width="643.862" height="412.357"/>
</g>
<rect x="18.686" y="52.085" fill="#FFFFFF" width="607.04" height="336.243"/>
<rect y="0" fill="#E67272" width="643.861" height="27.354"/>
<circle fill="#FFFFFF" cx="20.327" cy="13.985" r="5.07"/>
<circle fill="#FFFFFF" cx="39.57" cy="13.985" r="5.07"/>
<circle fill="#FFFFFF" cx="58.814" cy="13.985" r="5.07"/>
<rect x="73.844" y="86.973" fill="#E6E6E6" width="155.98" height="266.467"/>
<rect x="256.75" y="86.973" fill="#E6E6E6" width="129.984" height="73.348"/>
<rect x="256.75" y="180.747" fill="#E6E6E6" width="129.984" height="78.919"/>
<rect id="block4" x="256.75" y="180.747" fill="#E67272" width="129.984" height="78.919"/>
<rect x="256.75" y="280.092" fill="#E6E6E6" width="129.984" height="73.349"/>
<rect id="block5" x="256.75" y="280.092" fill="#E67272" width="129.984" height="73.349"/>
<rect x="414.587" y="86.973" fill="#E6E6E6" width="155.98" height="116.124"/>
<rect id="block3" x="414.587" y="86.973" fill="#E67272" width="155.98" height="116.124"/>
<rect x="414.587" y="237.315" fill="#E6E6E6" width="155.98" height="116.125"/>
<rect id="block6" x="414.587" y="237.315" fill="#E67272" width="155.98" height="116.125"/>
<path fill="#CCCCCC" d="M708.533,558.594h-381c-0.552,0-1-0.447-1-1c0-0.552,0.448-1,1-1h381c0.552,0,1,0.448,1,1
	C709.533,558.146,709.085,558.594,708.533,558.594z"/>
<rect id="block1" x="73.844" y="86.972" fill="#E67272" width="155.98" height="266.467"/>
<g id="wom">
	<g id="women">
		<path fill="#2F2E41" d="M523.259,391.836c-10.239,0-20.839-1.525-29.749-6.061c-9.561-4.772-16.702-13.312-19.709-23.566
			c-4.642-14.699,1.211-29.14,6.872-43.104c3.507-8.653,6.82-16.827,7.68-24.884l0.301-2.86c1.339-12.848,2.495-23.943,8.896-28.105
			c3.318-2.157,7.78-2.28,13.641-0.377l55.045,17.882l-2.023,104.49l-0.335,0.111C563.589,385.459,544.185,391.836,523.259,391.836z
			"/>
		<g>
			<path fill="#2F2E41" d="M510.479,211.44v-25c0-18.502,14.998-33.5,33.5-33.5s33.5,14.998,33.5,33.5l0,0v25
				c-0.003,2.484-2.016,4.497-4.5,4.5h-58C512.494,215.937,510.481,213.925,510.479,211.44z"/>
			<circle fill="#FFB8B8" cx="537.095" cy="190.797" r="24.561"/>
			<path fill="#2F2E41" d="M502.553,188.44c0.018-14.629,11.872-26.483,26.5-26.5h5.001c14.628,0.017,26.483,11.871,26.499,26.5v0.5
				h-10.566l-3.604-10.092l-0.721,10.092h-5.461l-1.818-5.092l-0.364,5.092h-35.466V188.44z"/>
			<path fill="#2F2E41" d="M534.678,218.752c-1.013-1.371-1.149-3.201-0.353-4.707c5.299-10.078,12.718-28.7,2.87-40.185
				l-0.708-0.825h28.588v42.92l-25.97,4.582c-0.263,0.046-0.529,0.069-0.797,0.07C536.871,220.607,535.521,219.917,534.678,218.752z
				"/>
		</g>
		<g>
			<g>
				<polygon fill="#FFB8B8" points="593.514,536.786 581.698,540.056 563.462,496.038 580.9,491.213 				"/>
				<path fill="#2F2E41" d="M572.324,539.016l22.787-6.307l0,0l3.971,14.348l0,0l-37.135,10.277l0,0l0,0
					C559.754,549.411,564.4,541.209,572.324,539.016z"/>
				<polygon fill="#FFB8B8" points="470.328,545.875 458.068,545.875 452.234,498.588 470.33,498.588 				"/>
				<path fill="#2F2E41" d="M449.311,542.372h23.645l0,0v14.887l0,0h-38.531l0,0l0,0
					C434.424,549.037,441.089,542.372,449.311,542.372z"/>
				<path fill="#2F2E41" d="M479.609,534.919l-42.994-7.165l24.128-98.524l35.903-134.737l0.354,2.393
					c0.028,0.178,3.383,17.779,53.151,9.97l0.438-0.068l0.121,0.427l60.151,212.537l-48.99,8.165l-44.683-155.067L479.609,534.919z"
					/>
			</g>
			<g>
				<path fill="#FFB8B8" d="M455.545,281.598c3.306,4.462,9.604,5.399,14.065,2.094c0.476-0.353,0.92-0.746,1.326-1.177
					l32.591,14.658l-2.965-18.332l-30.494-11.108c-4.305-3.557-10.678-2.95-14.233,1.354
					C452.859,272.69,452.739,277.862,455.545,281.598z"/>
				<path fill="#E3E76E" d="M510.229,230.348c0,0,27-8,48-5c0,0-12,66-8,88s-69.5,8.5-54.5-12.5l5-25c0,0-10-10-1-22
					L510.229,230.348z"/>
				<path fill="#2F2E41" d="M496.948,389.855l-33.276-6.239l11.617-89.407c0.781-2.496,18.778-59.143,26.952-62.208
					c5.935-2.09,12.004-3.775,18.166-5.047l1.185-0.236l-6.673,10.009l-26.564,63.654L496.948,389.855z"/>
				<path fill="#2F2E41" d="M539.202,406.587l0.026-0.757c0.03-0.84,2.988-84.372,2-117.967
					c-0.991-33.709,9.922-62.901,10.032-63.192l0.089-0.234l0.241-0.069c14.12-4.033,26.369,8.006,26.491,8.128l0.172,0.172
					l-4.021,33.176l17.217,120.642L539.202,406.587z"/>
				<path fill="#2F2E41" d="M559.292,319.477l-2.096-19.906l28.763-15.869l-18.752-22.7l3.06-25.5l7.62-3.266l0.236,0.305
					c3.594,4.62,35.105,45.281,35.105,50.308c0,5.162-6.028,20.323-14.276,24.447c-7.956,3.978-37.831,11.71-39.099,12.037
					L559.292,319.477z"/>
			</g>
		</g>
	</g>
	<g id="search">
		<path fill="#3F3D56" d="M419.58,41.547C362.589-6.543,277.404,0.673,229.314,57.663c-48.089,56.991-40.874,142.176,16.117,190.266
			c53.307,44.981,132.102,41.957,181.804-6.979l165.618,139.748c5.247,4.437,13.098,3.779,17.534-1.469
			c4.437-5.247,3.778-13.098-1.469-17.534l-0.019-0.016L443.283,221.93C483.155,164.705,472.883,86.529,419.58,41.547z
			 M408.903,208.474c-36.029,42.698-99.85,48.104-142.548,12.076s-48.105-99.85-12.077-142.548s99.85-48.105,142.547-12.076l0,0
			C439.525,101.955,444.932,165.776,408.903,208.474L408.903,208.474z"/>
		<path opacity="0.3" enable-background="new    " d="M266.355,220.551c-40.238-33.956-47.704-93.099-17.166-135.989
			c-1.934,1.948-3.804,3.988-5.609,6.12c-36.028,42.698-30.622,106.52,12.077,142.548c42.699,36.029,106.52,30.622,142.548-12.076
			c1.801-2.135,3.498-4.321,5.089-6.559C366.153,251.912,306.597,254.503,266.355,220.551z"/>
	</g>
	<path id="hand" fill="#FFB8B8" d="M544.98,324.536c5.395,1.319,10.837-1.985,12.156-7.38c0.141-0.575,0.23-1.161,0.268-1.752
		l34.433-9.558l-13.997-12.204l-30.552,10.947c-5.584,0.016-10.097,4.556-10.081,10.14
		C537.221,319.402,540.435,323.456,544.98,324.536z"/>
</g>
<rect id="block2" x="256.75" y="87.593" fill="#E67272" width="129.984" height="73.348"/>
</svg>
